# Vectary OBJ Export units=mm
mtllib simulation.mtl
o 000_SquarePlane_-_baked
g SquarePlane_-_baked
usemtl Ochre to Gray_8bec56d9-ace8-45a9-a6f4-54913174f226
v 13.541 43.704 0.000
v 13.541 39.080 0.000
v 20.207 39.080 0.000
v 20.207 43.704 0.000
v 26.873 39.080 0.000
v 26.873 43.704 0.000
v 20.207 48.328 0.000
v 26.873 48.328 0.000
v 33.540 39.080 0.000
v 33.540 43.704 0.000
v 33.540 48.328 0.000
v 26.873 52.952 0.000
v 33.540 52.952 0.000
v 40.206 39.080 0.000
v 40.206 43.704 0.000
v 40.206 48.328 0.000
v 40.206 52.952 0.000
v 33.540 57.576 0.000
v 40.206 57.576 0.000
v 46.872 39.080 0.000
v 46.872 43.704 0.000
v 46.872 48.328 0.000
v 46.872 52.952 0.000
v 46.872 57.576 0.000
v 40.206 62.200 0.000
v 46.872 62.200 0.000
v 53.539 39.080 0.000
v 53.539 43.704 0.000
v 53.539 48.328 0.000
v 53.539 52.952 0.000
v 53.539 57.576 0.000
v 53.539 62.200 0.000
v 46.872 66.824 0.000
v 53.539 66.824 0.000
v 6.874 39.080 0.000
v 53.539 71.448 0.000
vt 0.50000 0.08333
vt 0.50000 0.00000
vt 0.58333 0.00000
vt 0.58333 0.08333
vt 0.66667 0.00000
vt 0.66667 0.08333
vt 0.58333 0.16667
vt 0.66667 0.16667
vt 0.75000 0.00000
vt 0.75000 0.08333
vt 0.75000 0.16667
vt 0.66667 0.25000
vt 0.75000 0.25000
vt 0.83333 0.00000
vt 0.83333 0.08333
vt 0.83333 0.16667
vt 0.83333 0.25000
vt 0.75000 0.33333
vt 0.83333 0.33333
vt 0.91667 0.00000
vt 0.91667 0.08333
vt 0.91667 0.16667
vt 0.91667 0.25000
vt 0.91667 0.33333
vt 0.83333 0.41667
vt 0.91667 0.41667
vt 1.00000 0.00000
vt 1.00000 0.08333
vt 1.00000 0.16667
vt 1.00000 0.25000
vt 1.00000 0.33333
vt 1.00000 0.41667
vt 0.91667 0.50000
vt 1.00000 0.50000
vt 0.50000 0.08333
vt 0.41667 0.00000
vt 0.58333 0.16667
vt 0.50000 0.08333
vt 0.66667 0.25000
vt 0.58333 0.16667
vt 0.75000 0.33333
vt 0.66667 0.25000
vt 0.83333 0.41667
vt 0.75000 0.33333
vt 0.91667 0.50000
vt 0.83333 0.41667
vt 1.00000 0.58333
vt 0.91667 0.50000
vn 0.00000 0.00000 1.00000
vn 0.00000 0.00000 1.00000
vn 0.00000 0.00000 1.00000
vn 0.00000 0.00000 1.00000
vn 0.00000 0.00000 1.00000
vn 0.00000 0.00000 1.00000
vn 0.00000 0.00000 1.00000
vn 0.00000 0.00000 1.00000
vn 0.00000 0.00000 1.00000
vn 0.00000 0.00000 1.00000
vn 0.00000 0.00000 1.00000
vn 0.00000 0.00000 1.00000
vn 0.00000 0.00000 1.00000
vn 0.00000 0.00000 1.00000
vn 0.00000 0.00000 1.00000
vn 0.00000 0.00000 1.00000
vn 0.00000 0.00000 1.00000
vn 0.00000 0.00000 1.00000
vn 0.00000 0.00000 1.00000
vn 0.00000 0.00000 1.00000
vn 0.00000 0.00000 1.00000
vn 0.00000 0.00000 1.00000
vn 0.00000 0.00000 1.00000
vn 0.00000 0.00000 1.00000
vn 0.00000 0.00000 1.00000
vn 0.00000 0.00000 1.00000
vn 0.00000 0.00000 1.00000
vn 0.00000 0.00000 1.00000
vn 0.00000 0.00000 1.00000
vn 0.00000 0.00000 1.00000
vn 0.00000 0.00000 1.00000
vn 0.00000 0.00000 1.00000
vn 0.00000 0.00000 1.00000
vn 0.00000 0.00000 1.00000
vn 0.00000 0.00000 1.00000
vn 0.00000 0.00000 1.00000
vn 0.00000 -0.00000 1.00000
vn 0.00000 0.00000 1.00000
vn 0.00000 0.00000 1.00000
vn 0.00000 -0.00000 1.00000
vn 0.00000 0.00000 1.00000
vn 0.00000 0.00000 1.00000
vn 0.00000 0.00000 1.00000
vn 0.00000 0.00000 1.00000
vn 0.00000 0.00000 1.00000
vn 0.00000 0.00000 1.00000
vn 0.00000 0.00000 1.00000
vn -0.00000 0.00000 1.00000
vn 0.00000 0.00000 1.00000
vn 0.00000 0.00000 1.00000
vn -0.00000 0.00000 1.00000
vn -0.00000 0.00000 1.00000
vn 0.00000 -0.00000 1.00000
vn 0.00000 0.00000 1.00000
vn -0.00000 0.00000 1.00000
vn -0.00000 -0.00000 1.00000
vn 0.00000 0.00000 1.00000
vn 0.00000 -0.00000 1.00000
vn -0.00000 -0.00000 1.00000
vn 0.00000 0.00000 1.00000
vn 0.00000 0.00000 1.00000
vn 0.00000 0.00000 1.00000
vn 0.00000 0.00000 1.00000
vn 0.00000 0.00000 1.00000
vn -0.00000 0.00000 1.00000
vn 0.00000 0.00000 1.00000
vn 0.00000 0.00000 1.00000
vn 0.00000 0.00000 1.00000
vn -0.00000 0.00000 1.00000
vn -0.00000 0.00000 1.00000
vn 0.00000 0.00000 1.00000
vn 0.00000 0.00000 1.00000
vn -0.00000 -0.00000 1.00000
vn -0.00000 0.00000 1.00000
vn 0.00000 0.00000 1.00000
vn 0.00000 0.00000 1.00000
vn 0.00000 0.00000 1.00000
vn -0.00000 -0.00000 1.00000
vn 0.00000 0.00000 1.00000
vn 0.00000 0.00000 1.00000
vn 0.00000 0.00000 1.00000
vn 0.00000 0.00000 1.00000
vn 0.00000 0.00000 1.00000
vn 0.00000 0.00000 1.00000
vn 0.00000 0.00000 1.00000
vn 0.00000 0.00000 1.00000
vn 0.00000 0.00000 1.00000
vn 0.00000 0.00000 1.00000
vn 0.00000 0.00000 1.00000
vn 0.00000 0.00000 1.00000
vn 0.00000 0.00000 1.00000
vn 0.00000 0.00000 1.00000
vn 0.00000 0.00000 1.00000
vn 0.00000 0.00000 1.00000
vn 0.00000 -0.00000 1.00000
vn 0.00000 0.00000 1.00000
vn 0.00000 -0.00000 1.00000
vn 0.00000 0.00000 1.00000
vn 0.00000 -0.00000 1.00000
vn 0.00000 0.00000 1.00000
vn 0.00000 0.00000 1.00000
vn 0.00000 0.00000 1.00000
vn 0.00000 0.00000 1.00000
vn 0.00000 0.00000 1.00000
vn 0.00000 0.00000 1.00000
f 2/2/2 3/3/3 4/4/4 1/1/1 
f 3/3/6 5/5/7 6/6/8 4/4/5 
f 4/4/10 6/6/11 8/8/12 7/7/9 
f 5/5/14 9/9/15 10/10/16 6/6/13 
f 6/6/18 10/10/19 11/11/20 8/8/17 
f 8/8/22 11/11/23 13/13/24 12/12/21 
f 9/9/26 14/14/27 15/15/28 10/10/25 
f 10/10/30 15/15/31 16/16/32 11/11/29 
f 11/11/34 16/16/35 17/17/36 13/13/33 
f 13/13/38 17/17/39 19/19/40 18/18/37 
f 14/14/42 20/20/43 21/21/44 15/15/41 
f 15/15/46 21/21/47 22/22/48 16/16/45 
f 16/16/50 22/22/51 23/23/52 17/17/49 
f 17/17/54 23/23/55 24/24/56 19/19/53 
f 19/19/58 24/24/59 26/26/60 25/25/57 
f 20/20/62 27/27/63 28/28/64 21/21/61 
f 21/21/66 28/28/67 29/29/68 22/22/65 
f 22/22/70 29/29/71 30/30/72 23/23/69 
f 23/23/74 30/30/75 31/31/76 24/24/73 
f 24/24/78 31/31/79 32/32/80 26/26/77 
f 26/26/82 32/32/83 34/34/84 33/33/81 
f 2/2/85 1/35/86 35/36/87 
f 4/4/88 7/37/89 1/38/90 
f 8/8/91 12/39/92 7/40/93 
f 13/13/94 18/41/95 12/42/96 
f 19/19/97 25/43/98 18/44/99 
f 26/26/100 33/45/101 25/46/102 
f 34/34/103 36/47/104 33/48/105 
